<?xml version="1.0" encoding="UTF-8" standalone="no"?>
<!DOCTYPE svg PUBLIC "-//W3C//DTD SVG 1.1//EN"
 "http://www.w3.org/Graphics/SVG/1.1/DTD/svg11.dtd">
<!-- Generated by graphviz version 2.43.0 (0)
 -->
<!-- Title: structs Pages: 1 -->
<svg width="842pt" height="191pt"
 viewBox="0.00 0.00 842.00 191.00" xmlns="http://www.w3.org/2000/svg" xmlns:xlink="http://www.w3.org/1999/xlink">
<g id="graph0" class="graph" transform="scale(1 1) rotate(0) translate(4 187)">
<title>structs</title>
<polygon fill="white" stroke="transparent" points="-4,4 -4,-187 838,-187 838,4 -4,4"/>
<!-- run -->
<g id="node1" class="node">
<title>run</title>
<polygon fill="none" stroke="black" points="301.5,-146.5 301.5,-182.5 474.5,-182.5 474.5,-146.5 301.5,-146.5"/>
<text text-anchor="middle" x="346" y="-160.8" font-family="Times,serif" font-size="14.00">name: run</text>
<polyline fill="none" stroke="black" points="390.5,-146.5 390.5,-182.5 "/>
<text text-anchor="middle" x="432.5" y="-160.8" font-family="Times,serif" font-size="14.00">level: run</text>
</g>
<!-- subject -->
<g id="node2" class="node">
<title>subject</title>
<polygon fill="none" stroke="black" points="274.5,-73.5 274.5,-109.5 501.5,-109.5 501.5,-73.5 274.5,-73.5"/>
<text text-anchor="middle" x="332.5" y="-87.8" font-family="Times,serif" font-size="14.00">name: subject</text>
<polyline fill="none" stroke="black" points="390.5,-73.5 390.5,-109.5 "/>
<text text-anchor="middle" x="446" y="-87.8" font-family="Times,serif" font-size="14.00">level: subject</text>
</g>
<!-- run&#45;&gt;subject -->
<g id="edge1" class="edge">
<title>run&#45;&gt;subject</title>
<path fill="none" stroke="black" d="M388,-146.31C388,-138.29 388,-128.55 388,-119.57"/>
<polygon fill="black" stroke="black" points="391.5,-119.53 388,-109.53 384.5,-119.53 391.5,-119.53"/>
</g>
<!-- positive -->
<g id="node3" class="node">
<title>positive</title>
<polygon fill="none" stroke="black" points="0,-0.5 0,-36.5 234,-36.5 234,-0.5 0,-0.5"/>
<text text-anchor="middle" x="60.5" y="-14.8" font-family="Times,serif" font-size="14.00">name: positive</text>
<polyline fill="none" stroke="black" points="121,-0.5 121,-36.5 "/>
<text text-anchor="middle" x="177.5" y="-14.8" font-family="Times,serif" font-size="14.00">level: dataset</text>
</g>
<!-- subject&#45;&gt;positive -->
<g id="edge2" class="edge">
<title>subject&#45;&gt;positive</title>
<path fill="none" stroke="black" d="M323.09,-73.49C283.66,-63.16 233.16,-49.93 192.02,-39.16"/>
<polygon fill="black" stroke="black" points="192.88,-35.76 182.32,-36.61 191.11,-42.53 192.88,-35.76"/>
</g>
<!-- negative&#45;loss -->
<g id="node4" class="node">
<title>negative&#45;loss</title>
<polygon fill="none" stroke="black" points="252.5,-0.5 252.5,-36.5 523.5,-36.5 523.5,-0.5 252.5,-0.5"/>
<text text-anchor="middle" x="331.5" y="-14.8" font-family="Times,serif" font-size="14.00">name: negative&#45;loss</text>
<polyline fill="none" stroke="black" points="410.5,-0.5 410.5,-36.5 "/>
<text text-anchor="middle" x="467" y="-14.8" font-family="Times,serif" font-size="14.00">level: dataset</text>
</g>
<!-- subject&#45;&gt;negative&#45;loss -->
<g id="edge3" class="edge">
<title>subject&#45;&gt;negative&#45;loss</title>
<path fill="none" stroke="black" d="M388,-73.31C388,-65.29 388,-55.55 388,-46.57"/>
<polygon fill="black" stroke="black" points="391.5,-46.53 388,-36.53 384.5,-46.53 391.5,-46.53"/>
</g>
<!-- between&#45;groups -->
<g id="node5" class="node">
<title>between&#45;groups</title>
<polygon fill="none" stroke="black" points="542,-0.5 542,-36.5 834,-36.5 834,-0.5 542,-0.5"/>
<text text-anchor="middle" x="631.5" y="-14.8" font-family="Times,serif" font-size="14.00">name: between&#45;groups</text>
<polyline fill="none" stroke="black" points="721,-0.5 721,-36.5 "/>
<text text-anchor="middle" x="777.5" y="-14.8" font-family="Times,serif" font-size="14.00">level: dataset</text>
</g>
<!-- subject&#45;&gt;between&#45;groups -->
<g id="edge4" class="edge">
<title>subject&#45;&gt;between&#45;groups</title>
<path fill="none" stroke="black" d="M459.86,-73.49C503.86,-63.08 560.32,-49.72 606.06,-38.89"/>
<polygon fill="black" stroke="black" points="607.02,-42.26 615.95,-36.55 605.41,-35.45 607.02,-42.26"/>
</g>
</g>
</svg>