<?xml version="1.0" encoding="UTF-8" standalone="no"?>
<!DOCTYPE svg PUBLIC "-//W3C//DTD SVG 1.1//EN"
 "http://www.w3.org/Graphics/SVG/1.1/DTD/svg11.dtd">
<!-- Generated by graphviz version 2.43.0 (0)
 -->
<!-- Title: structs Pages: 1 -->
<svg width="842pt" height="191pt"
 viewBox="0.00 0.00 841.50 191.00" xmlns="http://www.w3.org/2000/svg" xmlns:xlink="http://www.w3.org/1999/xlink">
<g id="graph0" class="graph" transform="scale(1 1) rotate(0) translate(4 187)">
<title>structs</title>
<polygon fill="white" stroke="transparent" points="-4,4 -4,-187 837.5,-187 837.5,4 -4,4"/>
<!-- run -->
<g id="node1" class="node">
<title>run</title>
<polygon fill="none" stroke="black" points="340.5,-146.5 340.5,-182.5 513.5,-182.5 513.5,-146.5 340.5,-146.5"/>
<text text-anchor="middle" x="385" y="-160.8" font-family="Times,serif" font-size="14.00">name: run</text>
<polyline fill="none" stroke="black" points="429.5,-146.5 429.5,-182.5 "/>
<text text-anchor="middle" x="471.5" y="-160.8" font-family="Times,serif" font-size="14.00">level: run</text>
</g>
<!-- subject -->
<g id="node2" class="node">
<title>subject</title>
<polygon fill="none" stroke="black" points="313.5,-73.5 313.5,-109.5 540.5,-109.5 540.5,-73.5 313.5,-73.5"/>
<text text-anchor="middle" x="371.5" y="-87.8" font-family="Times,serif" font-size="14.00">name: subject</text>
<polyline fill="none" stroke="black" points="429.5,-73.5 429.5,-109.5 "/>
<text text-anchor="middle" x="485" y="-87.8" font-family="Times,serif" font-size="14.00">level: subject</text>
</g>
<!-- run&#45;&gt;subject -->
<g id="edge1" class="edge">
<title>run&#45;&gt;subject</title>
<path fill="none" stroke="black" d="M427,-146.31C427,-138.29 427,-128.55 427,-119.57"/>
<polygon fill="black" stroke="black" points="430.5,-119.53 427,-109.53 423.5,-119.53 430.5,-119.53"/>
</g>
<!-- between&#45;groups -->
<g id="node3" class="node">
<title>between&#45;groups</title>
<polygon fill="none" stroke="black" points="0,-0.5 0,-36.5 292,-36.5 292,-0.5 0,-0.5"/>
<text text-anchor="middle" x="89.5" y="-14.8" font-family="Times,serif" font-size="14.00">name: between&#45;groups</text>
<polyline fill="none" stroke="black" points="179,-0.5 179,-36.5 "/>
<text text-anchor="middle" x="235.5" y="-14.8" font-family="Times,serif" font-size="14.00">level: dataset</text>
</g>
<!-- subject&#45;&gt;between&#45;groups -->
<g id="edge4" class="edge">
<title>subject&#45;&gt;between&#45;groups</title>
<path fill="none" stroke="black" d="M359.69,-73.49C318.72,-63.14 266.23,-49.88 223.52,-39.09"/>
<polygon fill="black" stroke="black" points="224.28,-35.67 213.73,-36.61 222.57,-42.46 224.28,-35.67"/>
</g>
<!-- positive -->
<g id="node4" class="node">
<title>positive</title>
<polygon fill="none" stroke="black" points="310,-0.5 310,-36.5 544,-36.5 544,-0.5 310,-0.5"/>
<text text-anchor="middle" x="370.5" y="-14.8" font-family="Times,serif" font-size="14.00">name: positive</text>
<polyline fill="none" stroke="black" points="431,-0.5 431,-36.5 "/>
<text text-anchor="middle" x="487.5" y="-14.8" font-family="Times,serif" font-size="14.00">level: dataset</text>
</g>
<!-- subject&#45;&gt;positive -->
<g id="edge2" class="edge">
<title>subject&#45;&gt;positive</title>
<path fill="none" stroke="black" d="M427,-73.31C427,-65.29 427,-55.55 427,-46.57"/>
<polygon fill="black" stroke="black" points="430.5,-46.53 427,-36.53 423.5,-46.53 430.5,-46.53"/>
</g>
<!-- negative&#45;loss -->
<g id="node5" class="node">
<title>negative&#45;loss</title>
<polygon fill="none" stroke="black" points="562.5,-0.5 562.5,-36.5 833.5,-36.5 833.5,-0.5 562.5,-0.5"/>
<text text-anchor="middle" x="641.5" y="-14.8" font-family="Times,serif" font-size="14.00">name: negative&#45;loss</text>
<polyline fill="none" stroke="black" points="720.5,-0.5 720.5,-36.5 "/>
<text text-anchor="middle" x="777" y="-14.8" font-family="Times,serif" font-size="14.00">level: dataset</text>
</g>
<!-- subject&#45;&gt;negative&#45;loss -->
<g id="edge3" class="edge">
<title>subject&#45;&gt;negative&#45;loss</title>
<path fill="none" stroke="black" d="M491.91,-73.49C531.34,-63.16 581.84,-49.93 622.98,-39.16"/>
<polygon fill="black" stroke="black" points="623.89,-42.53 632.68,-36.61 622.12,-35.76 623.89,-42.53"/>
</g>
</g>
</svg>
