<?xml version="1.0" encoding="UTF-8" standalone="no"?>
<!DOCTYPE svg PUBLIC "-//W3C//DTD SVG 1.1//EN"
 "http://www.w3.org/Graphics/SVG/1.1/DTD/svg11.dtd">
<!-- Generated by graphviz version 2.43.0 (0)
 -->
<!-- Title: structs Pages: 1 -->
<svg width="462pt" height="118pt"
 viewBox="0.00 0.00 461.50 118.00" xmlns="http://www.w3.org/2000/svg" xmlns:xlink="http://www.w3.org/1999/xlink">
<g id="graph0" class="graph" transform="scale(1 1) rotate(0) translate(4 114)">
<title>structs</title>
<polygon fill="white" stroke="transparent" points="-4,4 -4,-114 457.5,-114 457.5,4 -4,4"/>
<!-- subject -->
<g id="node1" class="node">
<title>subject</title>
<polygon fill="none" stroke="black" points="126,-73.5 126,-109.5 326,-109.5 326,-73.5 126,-73.5"/>
<text text-anchor="middle" x="184" y="-87.8" font-family="Times,serif" font-size="14.00">name: subject</text>
<polyline fill="none" stroke="black" points="242,-73.5 242,-109.5 "/>
<text text-anchor="middle" x="284" y="-87.8" font-family="Times,serif" font-size="14.00">level: run</text>
</g>
<!-- t&#45;test -->
<g id="node2" class="node">
<title>t&#45;test</title>
<polygon fill="none" stroke="black" points="0,-0.5 0,-36.5 216,-36.5 216,-0.5 0,-0.5"/>
<text text-anchor="middle" x="51.5" y="-14.8" font-family="Times,serif" font-size="14.00">name: t&#45;test</text>
<polyline fill="none" stroke="black" points="103,-0.5 103,-36.5 "/>
<text text-anchor="middle" x="159.5" y="-14.8" font-family="Times,serif" font-size="14.00">level: dataset</text>
</g>
<!-- subject&#45;&gt;t&#45;test -->
<g id="edge1" class="edge">
<title>subject&#45;&gt;t&#45;test</title>
<path fill="none" stroke="black" d="M197.74,-73.49C181.94,-63.99 162.07,-52.04 145.05,-41.79"/>
<polygon fill="black" stroke="black" points="146.82,-38.77 136.44,-36.61 143.21,-44.77 146.82,-38.77"/>
</g>
<!-- F&#45;test -->
<g id="node3" class="node">
<title>F&#45;test</title>
<polygon fill="none" stroke="black" points="234.5,-0.5 234.5,-36.5 453.5,-36.5 453.5,-0.5 234.5,-0.5"/>
<text text-anchor="middle" x="287.5" y="-14.8" font-family="Times,serif" font-size="14.00">name: F&#45;test</text>
<polyline fill="none" stroke="black" points="340.5,-0.5 340.5,-36.5 "/>
<text text-anchor="middle" x="397" y="-14.8" font-family="Times,serif" font-size="14.00">level: dataset</text>
</g>
<!-- subject&#45;&gt;F&#45;test -->
<g id="edge2" class="edge">
<title>subject&#45;&gt;F&#45;test</title>
<path fill="none" stroke="black" d="M254.26,-73.49C270.06,-63.99 289.93,-52.04 306.95,-41.79"/>
<polygon fill="black" stroke="black" points="308.79,-44.77 315.56,-36.61 305.18,-38.77 308.79,-44.77"/>
</g>
</g>
</svg>
